<?xml version="1.0" encoding="UTF-8"?>
<svg version="1.1" xmlns="http://www.w3.org/2000/svg" width="1920" height="1920">
<path d="M0 0 C2.30883678 0.01199109 4.61764618 0.01891221 6.92650604 0.02481461 C30.60810222 0.09482176 54.14017639 0.73246248 77.71349335 3.13672256 C80.30772075 3.39811725 82.90300758 3.64563409 85.4988327 3.89062881 C173.17676894 12.2325895 262.57068179 31.25258948 348.26903534 70.49359512 C350.34841322 71.4580484 352.42988759 72.41788568 354.51152802 73.37744522 C386.19550521 88.00409012 416.20695244 103.87651082 444.12163544 124.98242569 C452.20024999 131.00938256 460.71889809 136.43851272 469.14897919 141.95654678 C480.35176885 149.32061449 490.89327938 157.18400325 500.81572723 166.23047256 C516.77516687 180.69617155 532.24696565 185.85216425 553.44463348 188.07422256 C735.63165059 208.49902659 735.63165059 208.49902659 801.19463348 256.38672256 C801.97580536 256.94617569 802.75697723 257.50562881 803.56182098 258.08203506 C818.6418097 269.30071179 827.49991578 282.96132877 834.19463348 300.38672256 C834.62518036 301.488871 835.05572723 302.59101944 835.49932098 303.72656631 C841.80181566 321.12693205 844.77735446 339.98043004 846.19463348 358.38672256 C846.28075897 359.44754044 846.36688446 360.50835831 846.45561981 361.60132217 C847.20691336 371.64243064 847.39694958 381.63377446 847.38213348 391.69922256 C847.3811969 392.52588425 847.38026031 393.35254593 847.37929535 394.20425797 C847.22633794 456.84822728 847.22633794 456.84822728 831.69463348 474.17578506 C828.44183391 477.05247968 826.48268887 478.6384381 822.15137482 478.6272316 C821.33107788 478.62998093 820.51078094 478.63273026 819.66562653 478.6355629 C818.76939072 478.62837234 817.87315491 478.62118179 816.94976044 478.61377335 C816.00322601 478.6140654 815.05669159 478.61435745 814.0814743 478.61465836 C810.94852831 478.61326348 807.81581926 478.59769473 804.68291473 478.58203506 C802.51243978 478.5783055 800.34196314 478.57545826 798.1714859 478.57345963 C792.45531832 478.56581873 786.73925217 478.54616627 781.02312469 478.52405167 C775.19163638 478.50360309 769.36013169 478.49446002 763.52861786 478.48437881 C752.0839118 478.46292086 740.63928107 478.42877937 729.19463348 478.38672256 C729.34890581 476.34370269 729.50401984 474.30074636 729.65947723 472.25781631 C729.74576385 471.12013809 729.83205048 469.98245987 729.92095184 468.81030655 C730.17067266 465.68645725 730.45626963 462.56848516 730.75713348 459.44922256 C734.0648979 418.63567771 721.23692795 377.88789754 694.98809052 346.46582413 C667.77624474 314.91993812 629.81842217 295.63722668 588.19463348 292.38672256 C547.44477498 290.37681658 506.98486116 301.86708053 476.19463348 329.38672256 C475.2110788 330.23879288 474.22752411 331.09086319 473.21416473 331.96875381 C447.72521253 354.35048137 431.52649978 385.27444655 425.19463348 418.38672256 C424.85625458 420.1095546 424.85625458 420.1095546 424.51103973 421.86719131 C423.18344804 429.97007853 422.99444972 438.00148686 422.94463348 446.19922256 C422.93528778 447.22974747 422.92594208 448.26027237 422.91631317 449.3220253 C422.94279426 455.88577135 423.45341919 462.30731446 424.21123505 468.81909561 C424.30542725 469.64639931 424.39961945 470.473703 424.49666595 471.32607651 C424.72703566 473.34655383 424.96051374 475.36667634 425.19463348 477.38672256 C323.0007623 478.0268425 220.80865531 478.48788369 118.61260223 478.48437881 C117.48788429 478.48435094 116.36316634 478.48432307 115.20436603 478.48429435 C86.823766 478.48337365 58.44317254 478.47295718 30.06257641 478.45874918 C13.65029694 478.45062846 -2.76198194 478.44529197 -19.174263 478.44165421 C-20.94707197 478.44126012 -20.94707197 478.44126012 -22.75569526 478.44085807 C-28.6938017 478.4395516 -34.63190814 478.43828824 -40.5700146 478.43704617 C-88.64846838 478.42693544 -136.7269172 478.40956899 -184.80536652 478.38672256 C-184.59403831 476.44840813 -184.59403831 476.44840813 -184.37844086 474.47093582 C-184.1935704 472.75204018 -184.00881816 471.03313183 -183.82416534 469.3142128 C-183.68485973 468.04086201 -183.68485973 468.04086201 -183.54273987 466.74178696 C-182.81893425 459.96969788 -182.45456075 453.2627237 -182.49286652 446.44922256 C-182.49850616 445.35005508 -182.50414581 444.2508876 -182.50995636 443.11841202 C-183.03216265 407.49205142 -195.94418169 372.05278177 -219.80536652 345.38672256 C-220.71698186 344.33086852 -221.62843186 343.27487171 -222.53974152 342.21875381 C-247.72601147 313.51595817 -285.63541215 295.63026981 -323.55927277 292.5317421 C-363.37326461 289.96114306 -402.67350909 301.08449774 -433.80536652 326.38672256 C-434.66025665 327.07339005 -434.66025665 327.07339005 -435.5324173 327.7739296 C-443.61460432 334.30210172 -450.59750737 340.99251887 -456.80536652 349.38672256 C-457.39994659 350.17103653 -457.39994659 350.17103653 -458.00653839 350.97119522 C-485.02778695 386.66580087 -494.80177768 428.12562027 -488.80536652 472.38672256 C-488.47373318 474.72029812 -488.14066485 477.05367079 -487.80536652 479.38672256 C-495.34453516 479.63372177 -502.88413711 479.84529331 -510.42499542 480.03369522 C-512.98348609 480.10162545 -515.54178464 480.17729477 -518.09980011 480.26123428 C-538.43783521 480.92088919 -557.74908947 481.13997864 -573.99286652 467.13672256 C-588.36573921 453.48474631 -593.34385166 438.57506249 -593.90106964 419.02978897 C-593.94132587 415.31509202 -593.94507855 411.60151176 -593.93036652 407.88672256 C-593.92881561 407.17817123 -593.92726471 406.4696199 -593.92566681 405.73959732 C-593.59307455 270.9721173 -593.59307455 270.9721173 -573.80536652 231.38672256 C-573.47166046 230.71270401 -573.13795441 230.03868546 -572.79413605 229.3442421 C-559.74307012 203.44289586 -537.66316666 190.26445601 -510.74286652 181.01172256 C-493.06711453 175.20228177 -474.81691954 171.01227759 -456.80536652 166.38672256 C-410.25574452 154.92786262 -410.25574452 154.92786262 -365.80536652 137.38672256 C-365.1286087 137.06139542 -364.45185089 136.73606827 -363.75458527 136.40088272 C-354.16243559 131.73487895 -345.49070955 125.95886672 -336.80390167 119.79687881 C-333.57837718 117.52096513 -330.31455425 115.30151086 -327.05536652 113.07422256 C-321.00776654 108.92462708 -314.99627685 104.72492624 -308.99286652 100.51172256 C-300.10261762 94.27468258 -291.15538337 88.12517784 -282.18183136 82.00879288 C-278.94431568 79.79900716 -275.71285835 77.58043898 -272.48139191 75.36182022 C-270.07710445 73.71411995 -267.66815233 72.07342641 -265.25849152 70.43359756 C-262.56078749 68.59623002 -259.88279305 66.73752935 -257.22724152 64.83984756 C-185.79602054 14.46526385 -85.39821938 -0.47470324 0 0 Z M-193.80536652 102.38672256 C-194.83742218 102.92667862 -194.83742218 102.92667862 -195.89032745 103.47754288 C-220.20444824 116.27850371 -242.50218485 132.42248503 -262.94843292 150.73535538 C-264.88761197 152.45986328 -266.85136022 154.15351232 -268.81708527 155.84766006 C-270.10592104 156.98446288 -271.39371755 158.12244527 -272.68036652 159.26172256 C-273.28195587 159.77283585 -273.88354523 160.28394913 -274.50336456 160.81055069 C-277.67941714 163.67582673 -278.70236949 164.93371792 -279.68817902 169.26953506 C-279.72685089 170.29820694 -279.76552277 171.32687881 -279.80536652 172.38672256 C-276.14992683 174.88667407 -273.6989617 175.76631234 -269.28182888 175.80830479 C-268.17707083 175.82596152 -267.07231277 175.84361825 -265.9340772 175.86181003 C-264.72572118 175.86610859 -263.51736515 175.87040715 -262.27239227 175.87483597 C-260.98462342 175.89106103 -259.69685456 175.90728609 -258.37006241 175.92400283 C-254.79762873 175.96858304 -251.22526107 175.99473637 -247.65263283 176.01786649 C-243.79905358 176.04601274 -239.94566865 176.0911583 -236.09223175 176.13415909 C-228.54442072 176.21565353 -220.99655084 176.28129532 -213.44854289 176.34146736 C-204.66199159 176.41202329 -195.87560491 176.49752351 -187.08919311 176.58347961 C-171.4146865 176.73624112 -155.74008404 176.87432644 -140.06537628 177.00464249 C-124.84844915 177.13115668 -109.63168916 177.26960638 -94.41498566 177.42065811 C-77.85130827 177.58506389 -61.28759413 177.74310212 -44.7237497 177.88981169 C-42.95833812 177.90545456 -41.19292657 177.92109952 -39.42751503 177.9367466 C-38.55885808 177.94443539 -37.69020114 177.95212418 -36.79522125 177.96004597 C-30.66750366 178.01467422 -24.53983738 178.07370318 -18.41217613 178.1342907 C-10.94761513 178.20790687 -3.48303122 178.27408135 3.9816782 178.33077428 C7.79180525 178.35987705 11.60183034 178.3922399 15.41184807 178.43338203 C19.5374106 178.47781063 23.6629297 178.50650254 27.78864288 178.53352737 C28.99922963 178.54897954 30.20981638 178.56443171 31.45708758 178.58035213 C33.11031304 178.58727912 33.11031304 178.58727912 34.79693699 178.59434605 C35.74960298 178.60259256 36.70226896 178.61083907 37.68380362 178.61933547 C40.36863026 178.37060284 41.97215824 177.90642537 44.19463348 176.38672256 C45.82824802 170.46023344 44.89849776 164.69283457 44.16240692 158.66553116 C44.04057541 157.60940125 43.9187439 156.55327133 43.79322052 155.46513748 C43.38937817 151.98732638 42.97226142 148.51126541 42.55400848 145.03516006 C42.26785476 142.61338884 41.98215578 140.19156384 41.69689178 137.76968765 C41.09754162 132.70020952 40.49138109 127.6316018 39.88066864 122.56348038 C39.09862632 116.06736705 38.33555714 109.56918609 37.57780838 103.07019997 C36.99249654 98.07124053 36.39615597 93.07364345 35.79656982 88.07637787 C35.51066356 85.68061384 35.22843082 83.28440847 34.94993591 80.88777161 C34.5594509 77.54007818 34.15391537 74.19454098 33.74443817 70.84912491 C33.63209335 69.8588681 33.51974854 68.8686113 33.40399933 67.84834671 C32.74602893 62.61735382 32.09079992 58.282889 28.19463348 54.38672256 C-45.12414977 49.31526523 -128.85057461 68.04838963 -193.80536652 102.38672256 Z M91.86919403 56.72095108 C87.77985312 63.23086702 90.40958646 73.56868416 91.43218231 80.88769913 C91.56391342 81.87292557 91.69564453 82.85815201 91.83136749 83.8732338 C92.26394875 87.092341 92.70729138 90.30984858 93.15166473 93.52734756 C93.45871734 95.78167329 93.76540798 98.03604834 94.07175446 100.29047012 C94.7132955 104.99805524 95.3604096 109.70483321 96.01128387 114.41113663 C96.84359173 120.43392624 97.66003913 126.45874508 98.47211933 132.48429108 C99.10078155 137.13329383 99.73876214 141.7809821 100.37945366 146.42834091 C100.68433578 148.64941474 100.98611818 150.87091641 101.28470039 153.09284592 C101.7031688 156.19775067 102.13440405 159.3006274 102.56890106 162.40332413 C102.68902557 163.31465103 102.80915009 164.22597794 102.93291473 165.16492081 C103.67420874 170.34494729 104.44161124 174.88649896 107.19463348 179.38672256 C113.34994346 181.85099325 119.652367 181.82924103 126.21315765 182.04483414 C127.42152003 182.09146206 128.62988241 182.13808999 129.87486184 182.18613088 C133.2163683 182.3133199 136.55798707 182.43273207 139.89988637 182.54882669 C143.50892936 182.67610669 147.11759129 182.81344971 150.72631073 182.949543 C157.79141761 183.21441628 164.85682872 183.47009598 171.92238151 183.72276212 C180.15455666 184.01754348 188.38636981 184.32189049 196.61817719 184.62674181 C211.30959156 185.17053069 226.00128651 185.70631998 240.69316864 186.2373085 C254.94074734 186.75225194 269.18814885 187.27175692 283.43535614 187.79687881 C284.31257914 187.82921032 285.18980214 187.86154182 286.09360765 187.89485307 C289.61996642 188.02483467 293.14632468 188.1548301 296.6726821 188.28484825 C311.90018337 188.84618051 327.12782022 189.40381944 342.35547763 189.96089739 C344.81751983 190.05099361 347.27955906 190.14117087 349.74159765 190.23136568 C358.36632455 190.5472382 366.99109114 190.86196421 375.61597167 191.17361666 C379.18163371 191.30246108 382.74727651 191.43178135 386.31287003 191.56250954 C390.1825624 191.70435211 394.05234559 191.84360235 397.92214203 191.98257828 C399.04287231 192.02401447 400.1636026 192.06545066 401.31829441 192.1081425 C404.27686069 192.21316464 407.23538984 192.30330084 410.19463348 192.38672256 C411.06822769 192.41876746 411.9418219 192.45081235 412.84188867 192.48382831 C417.87527146 192.60350685 417.87527146 192.60350685 422.31963348 190.32422256 C424.45520168 187.49050961 424.45520168 187.49050961 424.44463348 184.01172256 C421.63768586 175.87157446 413.3134503 170.87691345 406.79277802 165.67285538 C405.11053339 164.31904164 403.44695324 162.94441068 401.78447723 161.56641006 C380.41712997 143.97745288 356.37242564 130.20499726 331.7644577 117.69726944 C329.55737398 116.57171126 327.36040119 115.42978411 325.16728973 114.27734756 C262.97250281 81.91134521 192.23428488 64.51050598 122.88213348 56.94922256 C122.11762878 56.86514145 121.35312408 56.78106033 120.56545258 56.6944313 C113.52626857 55.93436126 106.47998113 55.28602162 99.40166473 55.03906631 C98.02651703 54.99060562 98.02651703 54.99060562 96.62358856 54.94116592 C94.11212483 55.26251656 94.11212483 55.26251656 91.86919403 56.72095108 Z " fill="#000000" transform="translate(832.8053665161133,676.6132774353027)"/>
<path d="M0 0 C1.66636577 1.41201672 3.30405716 2.84985852 4.93139648 4.30664062 C5.48520996 4.8000293 6.03902344 5.29341797 6.60961914 5.80175781 C28.92935193 26.0453868 43.56270038 55.52983615 45.05249023 85.76416016 C46.28938651 119.59945787 36.49395351 150.11080578 13.55639648 175.43164062 C11.70450414 177.41448123 9.82334297 179.36117373 7.93139648 181.30664062 C7.1747168 182.08910156 6.41803711 182.8715625 5.63842773 183.67773438 C-15.82282065 204.40021345 -47.3373693 214.8156772 -76.79858398 214.60498047 C-104.94117552 213.8241848 -132.04743346 204.23916879 -153.06860352 185.30664062 C-154.30610352 184.28183594 -154.30610352 184.28183594 -155.56860352 183.23632812 C-178.38152509 163.91663516 -191.58237523 134.97612726 -194.75610352 105.61914062 C-197.01783247 73.53086111 -188.07083253 41.4058498 -166.94360352 16.80664062 C-165.0088738 14.61773467 -163.04322849 12.45949425 -161.06860352 10.30664062 C-160.47692383 9.63246094 -159.88524414 8.95828125 -159.27563477 8.26367188 C-119.08989497 -35.22783572 -44.68831291 -36.43608156 0 0 Z " fill="#000000" transform="translate(571.068603515625,1028.693359375)"/>
<path d="M0 0 C26.14170188 22.03160428 40.27484118 51.67572831 43.3125 85.5625 C44.52359746 102.51786443 41.11380101 119.69167351 35.3125 135.5625 C34.95542969 136.58214844 34.59835937 137.60179687 34.23046875 138.65234375 C23.20115948 167.68709783 -0.99546707 189.84748233 -28.66796875 202.8125 C-56.32991074 215.16313271 -89.45045413 216.15616576 -117.88818359 205.7578125 C-135.06883549 199.01240129 -149.75200909 189.71111769 -162.6875 176.5625 C-163.58210938 175.66660156 -164.47671875 174.77070312 -165.3984375 173.84765625 C-187.81998874 150.35676949 -197.54384818 119.08148102 -196.93359375 87.09375 C-195.79495041 54.32801324 -180.7513273 25.0125823 -157.1796875 2.6796875 C-152.07733927 -1.97237076 -146.62496164 -5.90244175 -140.6875 -9.4375 C-140.04973633 -9.81745117 -139.41197266 -10.19740234 -138.75488281 -10.58886719 C-94.29929069 -36.55161791 -40.11113998 -32.08891198 0 0 Z " fill="#000000" transform="translate(1486.6875,1030.4375)"/>
</svg>
